<?xml version="1.0" encoding="UTF-8" standalone="no"?>
<!-- Created with Inkscape (http://www.inkscape.org/) -->

<svg
   width="508mm"
   height="285.75mm"
   viewBox="0 0 508 285.75"
   version="1.1"
   id="svg5"
   inkscape:export-filename="parallax-1.svg"
   inkscape:export-xdpi="96"
   inkscape:export-ydpi="96"
   xmlns:inkscape="http://www.inkscape.org/namespaces/inkscape"
   xmlns:sodipodi="http://sodipodi.sourceforge.net/DTD/sodipodi-0.dtd"
   xmlns:xlink="http://www.w3.org/1999/xlink"
   xmlns="http://www.w3.org/2000/svg"
   xmlns:svg="http://www.w3.org/2000/svg">
  <sodipodi:namedview
     id="namedview7"
     pagecolor="#505050"
     bordercolor="#eeeeee"
     borderopacity="1"
     inkscape:showpageshadow="0"
     inkscape:pageopacity="0"
     inkscape:pagecheckerboard="0"
     inkscape:deskcolor="#505050"
     inkscape:document-units="mm"
     showgrid="false" />
  <defs
     id="defs2">
    <linearGradient
       inkscape:collect="always"
       id="linearGradient12361">
      <stop
         style="stop-color:#37373e;stop-opacity:1;"
         offset="0.45803356"
         id="stop12357" />
      <stop
         style="stop-color:#27272a;stop-opacity:1;"
         offset="1"
         id="stop12359" />
    </linearGradient>
    <linearGradient
       inkscape:collect="always"
       xlink:href="#linearGradient12361"
       id="linearGradient12363"
       x1="86.556419"
       y1="150.75502"
       x2="86.556419"
       y2="285.75156"
       gradientUnits="userSpaceOnUse" />
  </defs>
  <g
     inkscape:label="Calque 1"
     inkscape:groupmode="layer"
     id="layer1">
    <path
       id="path10606"
       style="fill:url(#linearGradient12363);fill-opacity:1;stroke:none;stroke-width:0.297815px;stroke-linecap:butt;stroke-linejoin:miter;stroke-opacity:1"
       d="m 86.154431,150.70036 c -0.0589,0.009 -0.111995,0.0323 -0.156063,0.0796 -0.176257,0.18919 0.176269,0.61334 0,0.80254 -0.176257,0.18918 -0.524803,-0.11966 -0.747758,0 -1.653452,0.88735 -0.232001,0.49844 -0.747758,1.60559 -0.157646,0.33842 -0.590112,0.4641 -0.747758,0.80253 -0.111482,0.2393 0.111471,0.56323 0,0.80254 -0.157657,0.33842 -0.590111,0.46411 -0.747758,0.80253 -0.111482,0.23931 0.176258,0.61386 0,0.80305 -0.176268,0.18919 -0.571489,-0.18919 -0.747758,0 -0.176257,0.18919 0.111483,0.56324 0,0.80254 -0.401938,0.86283 -0.956257,1.63639 -1.495516,2.40812 -0.211512,0.30269 -0.590619,0.4641 -0.748274,0.80253 -0.111474,0.2393 0.176263,0.61336 0,0.80254 -1.547253,1.66072 0.06059,-2.53791 -1.495516,0.80253 -0.111478,0.2393 0.111477,0.56324 0,0.80254 -0.157653,0.33843 -0.590105,0.46462 -0.747758,0.80305 -0.537278,1.15335 -0.137756,0.92665 0.124023,0.70435 -0.133011,0.12698 -0.33567,0.32529 -0.871781,0.90072 -0.111477,0.2393 0,0.53499 0,0.80254 -0.249272,0.53511 -0.498485,1.07047 -0.747758,1.60558 -0.211313,0.34021 -1.933868,2.24207 -2.243274,2.40812 -0.222955,0.11964 -0.572014,-0.1892 -0.748275,0 -0.394132,0.42303 -0.353625,1.18205 -0.747758,1.60507 -0.17626,0.18919 -0.524803,-0.11965 -0.747758,0 -0.315305,0.16922 -0.498486,0.53498 -0.747758,0.80254 -0.249269,0.26755 -0.590102,0.46411 -0.747758,0.80253 -0.111475,0.23931 0.176264,0.61388 0,0.80306 -0.352519,0.37838 -1.049605,-0.23931 -1.495516,0 -3.112214,1.67024 0.799492,-0.0556 -0.747758,1.60507 -1.547255,1.6607 0.06007,-2.53791 -1.496032,0.80253 -0.111475,0.23931 0.176263,0.61385 0,0.80305 -0.484146,0.51964 -1.011371,-0.51966 -1.495516,0 -0.394133,0.42303 -0.353628,1.18204 -0.747758,1.60507 -0.176263,0.18918 -0.571498,-0.18919 -0.747758,0 -0.17626,0.18918 0.17626,0.61335 0,0.80254 -0.17626,0.18918 -0.571495,-0.18919 -0.747758,0 -0.17626,0.18918 0.176263,0.61334 0,0.80253 -0.204618,0.21963 -2.585353,-0.21771 -2.991032,0 -0.315306,0.16921 -0.432967,0.63383 -0.748275,0.80305 -0.463203,0.24859 -2.769767,-0.23748 -2.991032,0 -0.176263,0.18918 0.17626,0.61334 0,0.80254 -0.352522,0.37836 -1.049608,-0.23931 -1.495516,0 -3.112217,1.67025 0.799491,-0.0556 -0.747758,1.60507 -0.176259,0.18919 -0.571495,-0.18918 -0.747758,0 -0.176259,0.18919 0.176263,0.61385 0,0.80305 -0.176259,0.18918 -0.499006,0 -0.748274,0 0,0.26755 0.176259,0.61336 0,0.80254 -0.394133,0.42304 -1.101387,0.37949 -1.495516,0.80253 -0.176263,0.18918 0.176259,0.61335 0,0.80254 -0.04792,0.0514 -2.851737,1.50588 -2.991032,1.60558 -0.293317,0.20988 -0.498489,0.53499 -0.747758,0.80254 0,0.26756 0.17626,0.61335 0,0.80253 -0.352524,0.37838 -1.142995,-0.37837 -1.495516,0 -0.635519,0.68212 1.973369,3.09495 -1.496033,2.40812 -0.44591,0.35897 -1.031743,0.47068 -1.495516,0.80254 -0.293318,0.20988 -0.498486,0.53497 -0.747758,0.80253 -0.74781,0.80264 -1.49546,1.60547 -2.243274,2.40813 -0.249268,0.26755 -0.432452,0.63333 -0.747758,0.80253 -0.222954,0.11966 -0.572013,-0.18918 -0.748274,0 -0.17626,0.1892 0.13827,0.57992 0,0.80254 -0.391089,0.62964 -1.104429,0.97593 -1.495516,1.60558 -0.138272,0.22261 0.176259,0.61336 0,0.80254 -0.17626,0.18918 -0.609486,-0.22261 -0.747758,0 -0.437248,0.70397 -0.31051,1.70414 -0.747758,2.40812 -0.309182,0.49777 -1.690304,-0.89326 -1.495516,0.80253 -0.111478,0.2393 0.111474,0.56324 0,0.80254 -0.157655,0.33843 -0.498489,0.53499 -0.747758,0.80253 -0.249272,0.26755 -0.432454,0.63386 -0.747758,0.80306 -0.222956,0.11966 -0.525319,-0.11964 -0.748275,0 -0.315305,0.16922 -0.432453,0.63332 -0.747758,0.80253 -0.222956,0.11966 -0.571494,-0.18918 -0.747758,0 -0.35252,0.37838 0.352523,1.2267 0,1.60507 -0.17626,0.18919 -0.524803,-0.11965 -0.747758,0 -0.315305,0.16922 -0.432452,0.63385 -0.747758,0.80305 -0.222954,0.11966 -0.571497,-0.18918 -0.747758,0 -0.176261,0.18919 0.176261,0.61335 0,0.80254 -0.176261,0.18918 -0.524803,-0.11966 -0.747758,0 -2.086018,1.11949 0.590503,0.48557 -1.495516,1.60507 -0.222954,0.11965 -0.524804,-0.11965 -0.747758,0 -0.309407,0.16604 -2.032478,2.06791 -2.24379,2.40812 -0.309184,0.49779 -0.438576,1.10728 -0.747758,1.60507 -0.195544,0.31482 -0.590107,0.46463 -0.747758,0.80305 -0.111479,0.23931 0.17626,0.61334 0,0.80254 -0.176262,0.18918 -0.524803,-0.11966 -0.747758,0 -2.955193,1.58594 1.459677,0.0192 -1.495516,1.60507 -0.222955,0.11966 -0.571497,-0.18919 -0.747758,0 -0.176262,0.18919 0.176261,0.61334 0,0.80253 -0.176262,0.18919 -0.540869,-0.14841 -0.748275,0 -0.55307,0.39576 -2.375864,2.88053 -2.991032,3.21066 -0.222954,0.11966 -0.571497,-0.18918 -0.747758,0 -0.176261,0.1892 0.176261,0.61386 0,0.80305 -0.373907,0.40132 -1.869367,-0.40133 -2.243274,0 -0.176262,0.18918 0.111477,0.56324 0,0.80254 -0.157653,0.33842 -0.499004,0.53499 -0.748275,0.80253 -0.24927,0.26756 -0.432452,0.63332 -0.7477576,0.80254 -0.2229552,0.11966 -0.6362808,-0.2393 -0.7477579,0 -0.2229552,0.4786 0.157652,1.09795 0,1.60558 -0.111477,0.35896 -0.590105,0.46412 -0.747758,0.80254 -0.111477,0.23931 0.1114771,0.56323 0,0.80253 -0.8267273,1.7747 -0.4640155,0.24897 -1.495516,0.80254 -0.3153049,0.16921 -0.4984874,0.5355 -0.7477579,0.80305 C 3.9515685,233.22523 5.5736457,231.74369 0,233.45293 V 285.75 h 293.14283 c -0.25041,-0.0563 -0.52405,-0.0772 -0.80305,-0.0858 L 508,285.75 507.998,241.17184 c -1.83075,-0.0149 -3.70325,0.40587 -5.49217,-0.0424 -2.30147,-0.57679 -7.94168,-4.26551 -10.1999,-5.42138 -3.10691,-1.59029 -6.37393,-2.76697 -9.41492,-4.51807 -2.55134,-0.004 -2.88074,-3.46601 -4.70773,-4.51807 -0.46786,-0.26939 -1.10157,0.26941 -1.56941,0 -0.66165,-0.38099 -0.97711,-1.29596 -1.5689,-1.80712 -0.46783,-0.4041 -1.08281,-0.53022 -1.56941,-0.90382 -0.61549,-0.47256 -0.86763,-1.53772 -1.56941,-1.80713 -1.24055,-0.47624 -2.66539,0.41374 -3.92276,0 -1.12461,-0.37006 -2.01368,-1.43708 -3.13831,-1.80712 -0.75442,-0.24825 -1.56924,0 -2.35386,0 -0.78459,0 -1.59269,-0.21917 -2.35386,0 -0.56735,0.16338 -1.00207,0.74044 -1.56942,0.90382 -0.50746,0.14612 -1.06145,-0.14611 -1.56889,0 -0.56735,0.16338 -0.99595,0.77129 -1.56942,0.9033 -0.76938,0.17712 -1.56926,0 -2.35386,0 h -3.13831 c -0.78459,0 -1.5845,-0.17712 -2.35386,0 -0.57345,0.132 -0.99255,0.79317 -1.56941,0.90382 -1.0319,0.19808 -2.09216,0 -3.13831,0 -0.52308,0 -1.07266,0.19051 -1.5689,0 -1.10958,-0.42596 -2.05286,-1.30684 -3.13883,-1.80712 -0.24282,-0.11176 -0.52797,0.059 -0.78444,0 -1.0574,-0.24354 -2.12865,-0.46778 -3.13831,-0.90382 -1.09515,-0.47297 -2.0137,-1.43707 -3.13831,-1.80713 -4.88197,-1.60642 -0.81357,0.53546 -3.13831,0 -8.156,-1.87871 0.23946,0.092 -4.70773,-1.80712 -0.24811,-0.0952 -0.54457,0.11864 -0.78496,0 -2.1501,-1.06123 -4.18434,-2.40997 -6.27662,-3.61477 -1.04613,-0.60239 -2.02871,-1.38114 -3.13831,-1.80712 -1.17692,-0.4518 -1.37308,0.22591 -2.35386,0 -2.11477,-0.48709 -4.16234,-1.32003 -6.27714,-1.80713 -0.76937,-0.1773 -1.56873,0 -2.35334,0 -1.30766,0 -2.62569,-0.18681 -3.92328,0 -0.82066,0.11808 -1.53021,0.81762 -2.35386,0.90382 -10.93947,1.14533 -2.39942,-0.006 -9.41493,-0.90382 -1.29969,-0.16635 -2.6367,0.2694 -3.92327,0 -1.62743,-0.34077 -3.11193,-1.3059 -4.70773,-1.80712 -2.82101,-0.88606 -5.80947,-0.92107 -8.63048,-1.80713 -1.37981,-0.43339 -4.53156,-2.30887 -6.27713,-2.71094 -1.81343,-0.41769 -3.65202,-0.69138 -5.49218,-0.90331 -2.87349,-0.33092 -3.75142,0.52215 -7.06106,0.90331 -0.15727,0.0186 -6.20534,-0.0186 -6.27714,0 -5.78009,1.47927 -2.31241,0.99851 -5.49217,3.61425 -1.24095,1.0208 -2.77508,1.55442 -3.92276,2.71094 -0.98412,0.9917 -1.49277,2.48088 -2.35386,3.61425 -0.97424,1.28228 -2.20197,2.29607 -3.13883,3.61477 -1.42465,2.00535 -2.33189,4.49307 -3.92275,6.32519 -1.07832,1.2419 -2.65391,1.73674 -3.92276,2.71095 -1.87196,1.43724 -3.50756,3.29823 -5.49269,4.51755 -1.97165,1.21104 -4.18434,1.80737 -6.27662,2.71095 -2.09226,0.90361 -4.18433,1.80733 -6.27662,2.71094 -2.09227,0.9036 -4.21446,1.72116 -6.27714,2.71095 -1.07964,0.51808 -1.99655,1.51491 -3.13831,1.80712 -1.27653,0.32668 -2.6156,0 -3.92327,0 h -2.35334 c -0.52308,0 -1.05347,-0.099 -1.56942,0 -1.06367,0.20417 -2.0683,0.74921 -3.13831,0.90331 -1.8166,0.2615 -3.66142,0 -5.49217,0 h -2.35386 c -1.04615,0 -2.10693,0.19806 -3.13883,0 -2.12733,-0.40834 -4.15473,-1.36283 -6.27662,-1.80713 -0.77195,-0.16171 -1.56927,0 -2.35386,0 -0.78463,-0.30119 -1.5515,-0.67229 -2.35386,-0.9033 -0.25372,-0.0731 -0.52291,0 -0.78445,0 -0.11527,0 -3.28845,0.18269 -3.92327,0 -1.60473,-0.46201 -3.07562,-1.49396 -4.70721,-1.80713 -0.52875,-0.10156 -7.69518,-0.0347 -7.84603,0 -11.76906,2.71081 -1.4e-4,0.90322 -7.06159,2.71043 -1.55295,0.39744 -3.17809,0.40049 -4.70772,0.90382 -0.35564,0.11696 -0.42341,0.81081 -0.78445,0.90331 -2.05833,0.52677 -4.18147,0.63565 -6.27713,0.90382 -0.25994,0.0332 -0.54163,-0.11177 -0.78445,0 -1.08596,0.50026 -2.04317,1.33412 -3.13831,1.80712 -1.00967,0.43602 -2.10146,0.56261 -3.13831,0.90382 -0.0311,0.0102 -0.0605,0.0269 -0.0915,0.0377 -1.0039,-1.07151 -2.12061,-2.3179 -2.23345,-2.49959 -0.95138,-1.53171 2.23889,-0.27102 -0.74776,-2.40812 -0.4148,-0.29682 -1.06854,0.27531 -1.49603,0 -0.90686,-0.58401 -1.41746,-1.69902 -2.24328,-2.40812 -0.43525,-0.37372 -1.03174,-0.47069 -1.49551,-0.80254 -0.29332,-0.20988 -0.43246,-0.63332 -0.74776,-0.80253 -0.22296,-0.11965 -0.5248,0.11965 -0.74776,0 -0.63061,-0.33843 -0.82717,-1.36577 -1.49603,-1.60507 -0.47296,-0.16922 -0.99699,0 -1.49552,0 -0.24928,0 -0.52481,0.11964 -0.74776,0 -0.3153,-0.16922 -0.43243,-0.63384 -0.74775,-0.80306 -0.44591,-0.2393 -1.02256,0.16922 -1.49552,0 -1.04391,-0.37349 -3.05667,-1.85808 -3.73931,-2.4076 -1.63039,-1.31246 0.33994,-0.49653 -2.24327,-1.60559 -0.73189,-0.31423 -1.47856,-0.59732 -2.24328,-0.80253 -0.24182,-0.0648 -0.49848,0 -0.74775,0 h -4.48707 -1.49551 c -0.49855,0 -1.01239,0.12978 -1.49604,0 -0.54076,-0.1451 -0.95477,-0.65744 -1.49551,-0.80254 -0.48366,-0.12978 -0.99698,0 -1.49552,0 -0.24927,0 -0.52481,0.11966 -0.74776,0 -0.31531,-0.16921 -0.43244,-0.63333 -0.74775,-0.80253 -0.44591,-0.23931 -1.04962,0.2393 -1.49552,0 -0.31531,-0.16922 -0.499,-0.5355 -0.74827,-0.80305 -0.24927,-0.26755 -0.59011,-0.4641 -0.74776,-0.80254 -0.11148,-0.2393 0.17626,-0.61335 0,-0.80253 -0.17627,-0.18919 -0.63628,0.23931 -0.74776,0 -0.86873,-1.86487 -0.74776,-3.0124 -0.74776,-4.81625 0,-0.5351 0.0978,-1.08035 0,-1.60507 -0.15458,-0.82963 -0.39523,-1.65138 -0.74776,-2.40812 -0.0716,-0.15365 -2.84788,-3.13381 -2.99103,-3.21066 -0.44591,-0.2393 -1.02308,0.16921 -1.49603,0 -0.52879,-0.18918 -0.96674,-0.61335 -1.49552,-0.80253 -1.88822,-0.67556 0.77898,1.63036 -2.24327,-0.80254 -0.56404,-0.45405 -0.93148,-1.15102 -1.49552,-1.60507 -3.02223,-2.43289 -0.35557,-0.12748 -2.24379,-0.80305 -0.52878,-0.18919 -1.01756,-0.49472 -1.49551,-0.80253 -0.77069,-0.49632 -1.52428,-1.02626 -2.24328,-1.60507 -1.03629,-0.8342 -0.59941,-1.2527 -2.24327,-1.60559 -0.73329,-0.1574 -1.49597,0 -2.24379,0 -0.49855,0 -1.02257,0.16922 -1.49552,0 -0.33444,-0.11964 -0.43246,-0.63332 -0.74776,-0.80254 -0.22295,-0.11964 -0.52479,0.11966 -0.74775,0 -0.3153,-0.1692 -0.43246,-0.63333 -0.74776,-0.80253 -0.22297,-0.11966 -0.52481,0.11964 -0.74776,0 -0.3153,-0.16922 -0.43297,-0.63332 -0.74827,-0.80254 -0.22295,-0.11964 -0.51129,0.0847 -0.74776,0 -0.52879,-0.18917 -0.99697,-0.53551 -1.49552,-0.80305 -0.49853,-0.26756 -1.03175,-0.47068 -1.49551,-0.80253 -1.24093,-0.88796 -2.1935,-2.87112 -2.99155,-4.01319 -1.02673,-1.46937 -0.77221,-0.0791 -1.49552,-2.40813 -0.0789,-0.25383 0.11147,-0.56323 0,-0.80253 -0.15766,-0.33843 -0.63628,-0.44357 -0.74776,-0.80254 -0.001,-0.003 5.7e-4,-2.4075 0,-2.40812 -0.39413,-0.42303 -1.03174,-0.47067 -1.49551,-0.80253 -0.29331,-0.20989 -0.43246,-0.63332 -0.74776,-0.80254 -0.22296,-0.11966 -0.5715,0.18919 -0.74776,0 -0.17627,-0.18918 0.17626,-0.61386 0,-0.80305 -0.17627,-0.18919 -0.5248,0.11965 -0.74776,0 -0.3153,-0.16921 -0.43246,-0.63332 -0.74776,-0.80253 -0.4459,-0.2393 -1.05012,0.23931 -1.49603,0 -1.65345,-0.88735 -0.23201,-0.49792 -0.74776,-1.60507 -1.55613,-3.34043 0.0517,0.85817 -1.49551,-0.80254 -0.17625,-0.1892 0.11149,-0.56374 0,-0.80305 -0.15764,-0.33842 -0.59011,-0.4641 -0.74776,-0.80254 -0.11147,-0.2393 0.11148,-0.56323 0,-0.80253 -0.15765,-0.33843 -0.49849,-0.53499 -0.74776,-0.80254 -0.24928,-0.26755 -0.43245,-0.63384 -0.74776,-0.80305 -0.22295,-0.11965 -0.54035,0.14841 -0.74775,0 -0.87994,-0.62965 -1.36385,-1.77794 -2.24379,-2.4076 -0.1393,-0.0997 -2.94312,-1.55416 -2.99104,-1.60559 -0.17627,-0.18918 0.17626,-0.61334 0,-0.80253 -0.17627,-0.18919 -0.49849,0 -0.74775,0 0,-0.26755 0.17625,-0.61335 0,-0.80254 -0.17626,-0.18919 -0.57149,0.18919 -0.74776,0 -0.17626,-0.18919 0.17627,-0.61335 0,-0.80253 -0.17626,-0.18918 -0.57202,0.18918 -0.74828,0 -0.30717,-0.3297 -0.73195,-2.20323 -1.49551,-2.40813 -0.5374,-0.1442 -3.66199,0 -4.48655,0 -0.49854,0 -1.01238,0.12978 -1.49603,0 -0.54075,-0.1451 -0.94896,-0.68519 -1.49552,-0.80253 -0.73329,-0.15741 -1.51778,0.19468 -2.24327,0 -2.07482,-0.55674 0.0659,-0.73223 -0.74776,-1.60559 -0.35252,-0.37838 -1.04961,0.2393 -1.49552,0 -0.31531,-0.16922 -0.66277,-0.43546 -0.74827,-0.80253 -0.16505,-0.70862 0,-3.70482 0,-4.81573 v -0.80305 c 0,-0.26754 0.17627,-0.61336 0,-0.80254 -0.17626,-0.18918 -0.5715,0.18918 -0.74776,0 -0.99708,-1.07019 1.24641,-0.80253 -0.74776,-0.80253 -0.49854,0 -1.01185,0.1298 -1.49551,0 -1.08149,-0.29019 -1.93347,-1.2267 -2.99104,-1.60507 -0.23648,-0.0847 -0.57148,0.18918 -0.74775,0 -0.39413,-0.42303 -0.35415,-1.18256 -0.74828,-1.60559 -0.15287,-0.16409 -1.946775,0.15912 -2.243273,0 -0.315303,-0.16922 -0.454444,-0.59265 -0.747758,-0.80253 -0.463769,-0.33185 -1.031746,-0.47068 -1.495515,-0.80254 -0.293314,-0.20989 -0.432455,-0.63384 -0.747758,-0.80305 -0.445909,-0.2393 -1.143518,0.37837 -1.496033,0 -0.176258,-0.18919 0.176258,-0.61334 0,-0.80253 -0.352526,-0.37838 -1.143001,0.37838 -1.495516,0 -0.176269,-0.18919 0.176257,-0.61335 0,-0.80254 -0.176269,-0.18919 -0.524804,0.11965 -0.747758,0 -0.315304,-0.16922 -0.432454,-0.63332 -0.747758,-0.80253 -0.296497,-0.15912 -2.090387,0.16409 -2.243274,0 -0.176258,-0.1892 0.176257,-0.61335 0,-0.80254 -0.176258,-0.18918 -0.524793,0.11966 -0.747758,0 -1.790706,-0.961 0.470855,-1.60559 -1.496033,-1.60559 -0.186951,0 -0.415006,-0.10618 -0.591695,-0.0796 z m 203.384489,134.96231 2.38641,0.001 c -0.92738,0.0199 -1.86287,0.15147 -2.38641,-0.001 z" />
  </g>
</svg>
