<?xml version="1.0" encoding="UTF-8" standalone="no"?>
<!-- Created with Inkscape (http://www.inkscape.org/) -->

<svg
   width="508mm"
   height="285.75mm"
   viewBox="0 0 508 285.75"
   version="1.1"
   id="svg5"
   inkscape:export-filename="parallax-2.svg"
   inkscape:export-xdpi="96"
   inkscape:export-ydpi="96"
   xmlns:inkscape="http://www.inkscape.org/namespaces/inkscape"
   xmlns:sodipodi="http://sodipodi.sourceforge.net/DTD/sodipodi-0.dtd"
   xmlns:xlink="http://www.w3.org/1999/xlink"
   xmlns="http://www.w3.org/2000/svg"
   xmlns:svg="http://www.w3.org/2000/svg">
  <sodipodi:namedview
     id="namedview7"
     pagecolor="#505050"
     bordercolor="#eeeeee"
     borderopacity="1"
     inkscape:showpageshadow="0"
     inkscape:pageopacity="0"
     inkscape:pagecheckerboard="0"
     inkscape:deskcolor="#505050"
     inkscape:document-units="mm"
     showgrid="false" />
  <defs
     id="defs2">
    <linearGradient
       inkscape:collect="always"
       id="linearGradient12369">
      <stop
         style="stop-color:#202028;stop-opacity:1;"
         offset="0.49160671"
         id="stop12365" />
      <stop
         style="stop-color:#151518;stop-opacity:1;"
         offset="1"
         id="stop12367" />
    </linearGradient>
    <linearGradient
       inkscape:collect="always"
       xlink:href="#linearGradient12369"
       id="linearGradient12371"
       x1="373.59012"
       y1="160.86098"
       x2="373.59012"
       y2="285.69653"
       gradientUnits="userSpaceOnUse" />
  </defs>
  <g
     inkscape:label="Calque 1"
     inkscape:groupmode="layer"
     id="layer1">
    <path
       id="path11984"
       style="fill:url(#linearGradient12371);fill-opacity:1;stroke:none;stroke-width:0.252784px;stroke-linecap:butt;stroke-linejoin:miter;stroke-opacity:1"
       d="m 373.59012,160.86098 c -0.28657,0.003 -0.57594,0.0212 -0.61754,0.0486 -0.17096,0.11242 -0.2347,0.4209 -0.40566,0.5333 -0.16078,0.10573 -1.13356,-0.10901 -1.21646,0 -0.0956,0.12569 0.0956,0.40762 0,0.5333 -0.83897,1.1033 0.033,-1.68593 -0.8108,0.5333 -0.0605,0.15898 0.0956,0.40761 0,0.5333 -0.98484,1.29515 -0.59545,-0.15845 -1.21647,1.0666 -0.24692,0.48711 -0.34647,1.29373 -0.81132,1.59939 -0.1209,0.0794 -0.28423,-0.0795 -0.40514,0 -0.13105,0.0862 -1.49905,1.89043 -1.62212,2.1332 -0.16766,0.33071 -0.19195,0.78556 -0.40566,1.0666 -0.0956,0.1257 -0.28427,-0.0795 -0.40515,0 -0.17098,0.11243 -0.2705,0.35555 -0.40566,0.5333 -0.13516,0 -0.27743,-0.0562 -0.40566,0 -1.62193,0.71099 -0.13518,0.1774 -1.21646,1.59939 -0.0956,0.12568 -0.26996,0 -0.40514,0 -0.13517,0.17774 -0.27049,0.35555 -0.40566,0.5333 -0.42035,0.82918 -0.43661,1.0251 -0.40721,1.05988 -0.0839,0.0375 -0.36876,0.23875 -1.21492,1.07332 -0.33955,0.33491 -0.88412,1.38122 -1.21594,1.59939 -0.99869,0.65668 0.36601,-1.54781 -1.21647,0.5333 -0.0956,0.12569 0.0956,0.40762 0,0.5333 -1.58249,2.08112 -0.21778,-0.12338 -1.21646,0.5333 -0.17097,0.11241 -0.23469,0.42088 -0.40566,0.5333 -0.24177,0.15898 -0.569,-0.15898 -0.8108,0 -0.17097,0.11242 -0.23469,0.42087 -0.40566,0.5333 -0.12088,0.0795 -0.28474,-0.0795 -0.40566,0 -0.399,0.26235 -1.2226,1.87034 -1.62161,2.13269 -0.5593,0.36777 -0.36304,-0.64572 -0.81132,0.5333 -0.0604,0.15898 0.0956,0.40762 0,0.5333 -0.0956,0.12569 -0.30954,-0.12568 -0.40514,0 -0.0956,0.12569 0.0428,0.36466 0,0.5333 -0.0956,0.37706 -0.23802,0.73589 -0.40566,1.0666 -0.21205,0.41831 -0.63984,0.61695 -0.8108,1.0666 -0.0604,0.159 0.0605,0.37433 0,0.53331 -0.0855,0.22484 -0.29964,0.32363 -0.40566,0.53278 -0.16765,0.33071 -0.19196,0.78555 -0.40566,1.0666 -0.21371,0.28104 -0.59709,0.25226 -0.81081,0.5333 -0.2137,0.28104 -0.19194,0.78556 -0.40566,1.0666 -0.0956,0.12569 -0.30954,-0.12569 -0.40514,0 -0.0956,0.12569 0.0956,0.40762 0,0.5333 -0.54065,0.711 -0.40566,-0.88866 -0.40566,0.5333 -0.0855,0.22484 -0.24663,0.39388 -0.40566,0.53331 -1.08033,0.9471 -0.9284,0.24377 -2.02727,0.53278 -0.4191,0.11023 -0.83418,0.28192 -1.21646,0.5333 -1.19337,0.78461 0.62941,0.5333 -1.21646,0.5333 -0.36266,0.159 -0.44816,0.90762 -0.81081,1.0666 -0.25646,0.11241 -0.54573,-0.0697 -0.8108,0 -0.41913,0.11023 -0.81098,0.35554 -1.21646,0.5333 -0.27031,0.17774 -0.51812,0.4369 -0.81132,0.5333 -0.26225,0.0862 -0.55984,-0.13203 -0.81081,0 -0.45249,0.23802 -0.76398,0.82807 -1.21646,1.06609 -0.25099,0.13203 -0.56903,-0.15898 -0.8108,0 -0.51291,0.33726 -0.70356,1.26265 -1.21647,1.5999 -0.12091,0.0795 -0.31006,-0.12568 -0.40566,0 -0.21371,0.28104 -0.19195,0.78555 -0.40566,1.0666 -0.2137,0.28104 -0.59708,0.25226 -0.8108,0.5333 -0.0956,0.12569 0.0956,0.40761 0,0.5333 -0.0956,0.12568 -0.28478,-0.0796 -0.40566,0 -0.36883,0.24251 -1.15546,2.02565 -1.21646,2.13269 -0.60822,1.06649 -0.4055,1.8e-4 -1.21647,1.5999 -0.075,0.14789 0.0428,0.36468 0,0.5333 -0.0956,0.37706 -0.26999,0.71112 -0.40514,1.06661 -0.13516,0.3555 -0.22433,0.74811 -0.40566,1.06608 -0.22938,0.40219 -0.54048,0.7111 -0.8108,1.0666 -0.27034,0.35548 -0.5055,0.76495 -0.81132,1.0666 -0.24179,0.23847 -0.55935,0.31284 -0.81081,0.5333 -0.15904,0.13944 -0.32016,0.30847 -0.40566,0.53331 -0.0605,0.15898 0.12089,0.4538 0,0.5333 -0.24179,0.15899 -0.55436,-0.11241 -0.8108,0 -0.18133,0.0795 -0.24661,0.39334 -0.40566,0.53278 -0.25146,0.22047 -0.55932,0.31284 -0.8108,0.5333 -0.15904,0.13945 -0.23418,0.42088 -0.40515,0.5333 -0.38229,0.25136 -0.84996,0.2441 -1.21646,0.5333 -0.32783,0.25866 -0.46939,0.84176 -0.81132,1.0666 -0.49846,0.32775 -1.10939,0.24461 -1.62161,0.5333 -0.44791,0.25246 -0.79856,0.73687 -1.21646,1.06661 -0.5183,0.40897 -1.11919,0.62515 -1.62212,1.06608 -0.15904,0.13943 -0.24662,0.39387 -0.40566,0.5333 -0.50293,0.44095 -1.11867,0.62567 -1.62161,1.0666 -0.15905,0.13945 -0.2347,0.42089 -0.40566,0.5333 -0.3823,0.25137 -0.83416,0.28195 -1.21646,0.5333 -0.43588,0.28661 -0.76399,0.8286 -1.21646,1.06661 -0.25098,0.13203 -0.56905,-0.15898 -0.81081,0 -0.34194,0.22484 -0.49322,0.7872 -0.81132,1.06608 -0.11246,0.0986 -0.29702,-0.1066 -0.40514,0 -0.45876,0.45247 -0.81098,1.06666 -1.21646,1.5999 -0.40548,0.53323 -0.81099,1.06666 -1.21647,1.59991 -0.27033,0.3555 -0.50547,0.76443 -0.81132,1.06608 -0.24176,0.23847 -0.59708,0.25226 -0.8108,0.5333 -0.34457,0.45316 -0.50639,1.09946 -0.8108,1.5999 -0.23882,0.39257 -0.54049,0.71111 -0.81081,1.06661 -0.13517,0.17775 -0.24661,0.39385 -0.40566,0.5333 -0.25146,0.22045 -0.55934,0.31282 -0.8108,0.5333 -0.15905,0.13942 -0.25274,0.38196 -0.40566,0.53278 -0.38986,0.38455 -0.8199,0.6941 -1.21646,1.0666 -0.54991,0.51658 -1.05983,1.10692 -1.62213,1.5999 -0.50296,0.44094 -1.13804,0.58965 -1.6216,1.06661 -0.30585,0.30164 -0.54101,0.71058 -0.81132,1.06608 -0.27032,0.17775 -0.56902,0.29482 -0.81081,0.5333 -0.30582,0.30165 -0.49272,0.78771 -0.8108,1.0666 -0.11246,0.0986 -0.27452,-0.0431 -0.40566,0 -0.41465,0.13631 -0.84534,0.25443 -1.21646,0.5333 -0.58674,0.44095 -1.03537,1.15897 -1.62213,1.59991 -0.3711,0.27887 -0.81097,0.35555 -1.21646,0.5333 -0.13517,0 -0.28426,-0.0795 -0.40514,0 -0.17097,0.11242 -0.25276,0.38196 -0.40566,0.53278 -0.38986,0.38452 -0.78059,0.78 -1.21647,1.0666 -0.3823,0.25137 -0.81962,0.32453 -1.21646,0.5333 -0.28064,0.14761 -0.52409,0.40761 -0.8108,0.5333 -0.52869,0.23175 -1.10991,0.24461 -1.62213,0.53331 -0.44791,0.25245 -0.78057,0.77999 -1.21646,1.0666 -0.12088,0.0795 -0.28924,-0.0915 -0.40514,0 -0.5795,0.45726 -1.08148,1.06613 -1.62213,1.59938 -0.13514,0.17775 -0.24662,0.39388 -0.40566,0.5333 -0.78314,0.6866 -1.10409,0.54631 -2.02726,1.0666 -1.10209,0.62115 -2.12868,1.54665 -3.24373,2.13321 -0.39685,0.20874 -0.83416,0.2814 -1.21646,0.53278 -0.43588,0.28661 -0.81098,0.7111 -1.21647,1.0666 -0.40548,0.35549 -0.84209,0.65633 -1.21646,1.06661 -0.44053,0.48276 -0.81097,1.06666 -1.21646,1.5999 -0.27032,0.3555 -0.48299,0.80743 -0.81081,1.06608 -0.3665,0.2892 -0.83417,0.28193 -1.21646,0.5333 -0.43588,0.2866 -0.8266,0.68208 -1.21646,1.0666 -0.15292,0.15082 -0.22432,0.45381 -0.40566,0.53331 -0.25645,0.11241 -0.54857,-0.0862 -0.81081,0 -0.58642,0.19279 -1.06089,0.77138 -1.62212,1.0666 -1.16047,0.61044 -1.07635,0.31574 -2.02727,1.06608 -0.41789,0.32973 -0.82659,0.68207 -1.21646,1.0666 -0.0843,0.0832 -0.77742,1.05181 -0.81132,1.06661 -2.78362,1.22022 1.88886,-2.04169 -2.02727,0.5333 -0.30956,0.20355 -0.57388,0.50962 -0.85679,0.77359 -0.94079,0.003 -2.21622,2e-4 -2.3704,0.016 -1.64478,0.16868 -3.12827,0.72474 -4.74596,0.97359 -0.63997,0.0984 -3.83808,0 -3.95428,0 -0.26364,0 -0.53539,-0.0394 -0.79117,0 -0.80885,0.12443 -1.58201,0.32456 -2.37298,0.48679 -0.79094,0 -1.59479,-0.0871 -2.37298,0 -2.13905,0.23931 -4.18273,0.75313 -6.32727,0.97306 -1.04024,0.10668 -2.10954,0 -3.16414,0 h -2.37247 c -1.84556,0 -3.70531,0.14085 -5.53661,0 -1.07866,-0.083 -2.09188,-0.3763 -3.16415,-0.48627 -0.52012,-0.0533 -1.05452,0 -1.58182,0 h -2.37298 c -1.31824,0 -2.66794,0.17596 -3.95479,0 -1.151,-0.15739 -2.07525,-0.69453 -3.16364,-0.97358 -2.07935,-0.53312 -4.21857,-0.97316 -6.32777,-1.45986 -2.1092,-0.4867 -4.21808,-0.97368 -6.32727,-1.46038 -2.10919,-0.48669 -4.34018,-0.80757 -6.32778,-1.45986 -2.00118,-0.65675 -3.6495,-1.65931 -5.53661,-2.43344 -1.27912,-0.52473 -2.86775,-0.79147 -3.9548,-1.46038 -1.60373,-0.98682 -2.5186,-2.32691 -3.95479,-3.40703 -0.94443,-0.71027 -2.18152,-1.25599 -3.16363,-1.94665 -0.86806,-0.61046 -1.38091,-1.4125 -2.37299,-1.94665 -1.15697,-0.62293 -2.70382,-0.91054 -3.95479,-1.46037 -3.20548,-1.40889 0.29025,-1.14989 -5.53662,-1.94665 -0.0723,-0.01 -6.16925,0.01 -6.32778,0 -3.33642,-0.2053 -4.22169,-0.66504 -7.11842,-0.4868 -1.85504,0.11415 -3.70853,0.26182 -5.53662,0.4868 -1.75972,0.21656 -4.93682,1.22642 -6.32778,1.45985 -2.84383,0.47725 -5.8564,0.49634 -8.70024,0.97359 -1.60872,0.26997 -3.10539,0.79003 -4.74596,0.97358 -1.29699,0.1451 -2.64461,-0.0896 -3.9548,0 -7.07227,0.48369 1.53655,1.10369 -9.49141,0.48679 -0.83031,-0.0464 -1.54518,-0.42319 -2.37247,-0.48679 -1.30808,-0.10062 -2.63655,0 -3.95479,0 -0.79095,0 -1.59739,-0.0955 -2.37299,0 -2.13188,0.26236 -4.19588,0.71071 -6.327775,0.97307 -0.98869,0.12168 -1.18604,-0.24335 -2.372465,0 -1.118575,0.22944 -2.109546,0.64912 -3.164148,0.97358 -2.109199,0.64893 -4.15977,1.37506 -6.327263,1.94665 -0.242332,0.0639 -0.541045,-0.0513 -0.791166,0 -4.987196,1.0229 3.47652,-0.0383 -4.745447,0.97359 -2.343555,0.28841 1.757322,-0.86525 -3.164148,0 -1.133712,0.19932 -2.059623,0.71883 -3.163631,0.97358 -1.017841,0.23486 -2.097682,0.3551 -3.163631,0.48628 -0.258531,0.0318 -0.546372,-0.0602 -0.791166,0 -1.094749,0.26946 -2.045061,0.74415 -3.163631,0.97358 -0.500244,0.10261 -1.055031,0 -1.582333,0 -1.054602,0 -2.123382,0.10669 -3.163631,0 -0.581522,-0.0596 -1.003725,-0.41569 -1.581815,-0.48679 -0.775592,-0.0954 -1.582034,0 -2.372982,0 h -3.163631 c -0.790949,0 -1.597392,0.0954 -2.372982,0 -0.578091,-0.0711 -1.009878,-0.39879 -1.581816,-0.48679 -0.511554,-0.0787 -1.07026,0.0787 -1.581815,0 -0.571937,-0.088 -1.009879,-0.39828 -1.581816,-0.48628 -0.767334,-0.11805 -1.582031,0 -2.372982,0 -0.790948,0 -1.612462,-0.13371 -2.372981,0 -1.133712,0.19931 -2.029919,0.77375 -3.163632,0.97307 -1.26753,0.22285 -2.704194,-0.25651 -3.954797,0 -0.707448,0.14511 -0.961341,0.71905 -1.581816,0.97358 -0.490526,0.20123 -1.1107,0.26914 -1.582332,0.4868 -0.596573,0.27532 -0.914827,0.76785 -1.581816,0.97306 -0.471632,0.14511 -1.110184,-0.1451 -1.581815,0 -1.84178,0.56666 -2.173479,2.43145 -4.745447,2.43345 -3.065608,0.94318 -6.359365,1.5774 -9.49141,2.43396 -2.276481,0.62258 -7.96249,2.60905 -10.2825768,2.91971 -1.8033875,0.24143 -3.6910615,0.0147 -5.53661291,0.0227 L 0,285.75 212.10643,285.705 c -0.10431,0.0171 -0.20992,0.0262 -0.31367,0.0465 L 508,285.75 507.998,219.56644 h -11.35383 -2.83807 -1.21646 c -0.27032,0 -0.54574,0.0697 -0.81081,0 -0.41909,-0.11024 -0.79333,-0.4538 -1.21646,-0.5333 -4.45633,-0.83721 1.64281,1.20661 -3.64939,-0.5333 -0.41466,-0.13633 -0.79335,-0.4538 -1.21646,-0.5333 -0.53521,-0.10058 -1.08481,0.0786 -1.62212,0 -0.685,-0.1001 -1.3492,-0.37064 -2.02727,-0.53278 -0.8089,-0.19341 -1.61903,-0.3804 -2.43293,-0.5333 -0.1338,-0.0251 -0.2731,0.0348 -0.40566,0 -0.54645,-0.14373 -1.07044,-0.42967 -1.62212,-0.53331 -0.4014,-0.0754 -0.8141,0.0662 -1.21646,0 -0.68387,-0.1124 -1.34231,-0.43316 -2.02727,-0.5333 -0.53733,-0.0786 -1.08834,0.11689 -1.62161,0 -0.29813,-0.0653 -0.52836,-0.39373 -0.81132,-0.5333 -0.80041,-0.39472 -1.62195,-0.71111 -2.43292,-1.0666 -0.40548,0 -0.8231,0.12934 -1.21647,0 -0.70613,-0.23215 -1.31355,-0.8789 -2.02726,-1.0666 -0.66269,-0.17431 -1.35147,0 -2.02727,0 -0.27031,0 -0.55486,0.1124 -0.81132,0 -0.57344,-0.25139 -1.06037,-0.77086 -1.62161,-1.06608 -0.12549,-0.066 -0.28475,0.0795 -0.40566,0 -0.17097,-0.11243 -0.2347,-0.42089 -0.40566,-0.53331 -0.1209,-0.0795 -0.28426,0.0795 -0.40514,0 -0.17098,-0.11242 -0.2347,-0.42089 -0.40566,-0.5333 -0.1209,-0.0795 -0.27692,0.0562 -0.40514,0 -0.28672,-0.12569 -0.5246,-0.40762 -0.81132,-0.5333 -0.12822,-0.0562 -0.28426,0.0795 -0.40515,0 -0.17096,-0.11242 -0.23469,-0.42088 -0.40566,-0.5333 -0.24179,-0.15897 -0.55434,0.11242 -0.8108,0 -2.93708,-1.28749 0.63929,0.15362 -1.21646,-1.0666 -0.12089,-0.0795 -0.27049,0 -0.40566,0 -0.27031,-0.17774 -0.54049,-0.35555 -0.81081,-0.5333 -0.92786,-0.81348 0.25354,-0.42169 -1.21646,-1.06608 -0.12823,-0.0562 -0.31006,0.12569 -0.40566,0 -0.0956,-0.12569 0.0604,-0.37432 0,-0.53331 -0.0855,-0.22484 -0.27049,-0.35556 -0.40566,-0.5333 -0.27032,-0.3555 -0.66882,-0.59982 -0.8108,-1.0666 -0.1506,-0.49511 0.22493,-1.15622 0,-1.5999 -0.14993,-0.29579 -0.56901,0.15898 -0.8108,0 -0.12088,-0.0795 0.0956,-0.40708 0,-0.53278 -0.21371,-0.28103 -0.55985,-0.31284 -0.81132,-0.53331 -0.15905,-0.13943 -0.26998,-0.35554 -0.40515,-0.5333 -0.13515,-0.17774 -0.29961,-0.32414 -0.40566,-0.5333 -0.16764,-0.33071 -0.19194,-0.78555 -0.40566,-1.0666 -0.21371,-0.28104 -0.59709,-0.25226 -0.8108,-0.5333 -0.0956,-0.1257 0.0956,-0.40761 0,-0.5333 -0.0956,-0.12568 -0.27743,0.0562 -0.40566,0 -0.28671,-0.12568 -0.55932,-0.31284 -0.8108,-0.5333 -0.33687,-0.29533 -0.46315,-0.44169 -0.47853,-0.50281 -0.25592,-0.1168 -0.46915,-0.2085 -1.1436,-0.56328 -0.56122,-0.29522 -1.03519,-0.8738 -1.6216,-1.0666 -0.26224,-0.0862 -0.54575,0.0697 -0.81081,0 -0.41914,-0.11023 -0.79335,-0.4539 -1.21646,-0.5333 -0.80282,-0.15083 -1.62196,0 -2.43293,0 -0.13515,0 -0.28475,0.0794 -0.40566,0 -0.17097,-0.11242 -0.2347,-0.42088 -0.40566,-0.5333 -0.24177,-0.15897 -0.55434,0.11242 -0.8108,0 -0.28671,-0.12568 -0.52408,-0.40761 -0.8108,-0.5333 -0.25645,-0.11242 -0.56955,0.15898 -0.81132,0 -0.17097,-0.11242 -0.23418,-0.42087 -0.40515,-0.5333 -1.19326,-0.78461 0.5335,1.23525 -0.81132,-0.5333 -0.12088,-0.0794 -0.26998,0 -0.40514,0 -0.27032,-0.17775 -0.541,-0.35503 -0.81132,-0.53278 -1.85759,-1.62856 1.72353,0.86654 -1.21646,-1.06661 -0.15904,-0.13944 -0.23418,-0.42089 -0.40515,-0.5333 -0.12087,-0.0795 -0.28475,0.0795 -0.40566,0 -0.21633,-0.14225 -0.59447,-0.92433 -0.8108,-1.0666 -0.12091,-0.0795 -0.28479,0.0795 -0.40566,0 -0.17098,-0.11242 -0.23469,-0.4209 -0.40566,-0.5333 -0.12092,-0.0795 -0.28424,0.0794 -0.40514,0 -0.17096,-0.11243 -0.22023,-0.4723 -0.40566,-0.5333 -0.39338,-0.12933 -0.81099,0 -1.21647,0 -0.13517,0 -0.27313,0.0348 -0.40566,0 -0.43307,-0.1139 -2.32279,-0.72727 -2.83807,-1.06609 -0.43589,-0.28659 -0.76398,-0.82858 -1.21646,-1.0666 -0.25097,-0.13203 -0.55434,0.11242 -0.8108,0 -0.18132,-0.0795 -0.2347,-0.42088 -0.40566,-0.5333 -0.3167,-0.20823 -1.67298,-0.60066 -2.02727,-1.0666 -0.0956,-0.12569 0.1209,-0.4539 0,-0.5333 -0.24177,-0.15899 -0.55486,0.11241 -0.81132,0 -0.18135,-0.0795 -0.23417,-0.42088 -0.40514,-0.5333 -0.1209,-0.0795 -0.28477,0.0795 -0.40566,0 -0.17097,-0.11242 -0.27051,-0.35504 -0.40566,-0.53278 -0.27033,-0.3555 -0.5405,-0.71111 -0.8108,-1.06661 -0.13517,-0.17773 -0.24661,-0.39387 -0.40566,-0.5333 -0.25146,-0.22048 -0.59711,-0.25226 -0.81081,-0.5333 -0.98485,-1.29513 0.12074,-0.7832 -0.8108,-1.5999 -0.25148,-0.22047 -0.55984,-0.31282 -0.81132,-0.5333 -0.15904,-0.13943 -0.23417,-0.42037 -0.40514,-0.53278 -0.24177,-0.15898 -0.69043,0.31795 -0.81132,0 -0.1209,-0.31798 0.12089,-0.74864 0,-1.06661 -0.0605,-0.15898 -0.27693,0.0562 -0.40515,0 -0.28674,-0.12569 -0.54099,-0.35556 -0.81132,-0.5333 -0.27031,-0.17775 -0.55933,-0.31283 -0.8108,-0.5333 -0.15904,-0.13943 -0.22022,-0.4723 -0.40566,-0.5333 -0.14464,-0.0476 -3.62247,-0.0116 -3.64887,0 -0.28674,0.12569 -0.52461,0.40762 -0.81132,0.5333 -0.2361,0.10354 -2.15393,0 -2.43293,0 -0.34331,0 -1.40361,0.0955 -1.62161,0 -0.18133,-0.0795 -0.22434,-0.4538 -0.40566,-0.5333 -0.25646,-0.11242 -0.54049,0 -0.8108,0 -0.13517,0 -0.28477,0.0795 -0.40566,0 -0.17097,-0.11242 -0.23469,-0.42087 -0.40566,-0.5333 -0.25486,-0.16757 -1.36675,0.16759 -1.62161,0 -0.86267,-0.56721 0.0514,-0.49937 -0.81132,-1.0666 -0.12089,-0.0794 -0.26997,0 -0.40514,0 -0.27032,-0.35547 -0.54097,-0.71059 -0.81132,-1.06609 -0.13514,-0.17775 -0.26997,-0.35555 -0.40514,-0.5333 -0.13514,-0.17775 -0.2347,-0.42088 -0.40566,-0.5333 -1.19327,-0.78462 0.534,1.23524 -0.81081,-0.5333 -0.1209,-0.0795 -0.31006,0.12569 -0.40566,0 -0.0956,-0.12569 0.0956,-0.40762 0,-0.5333 -0.21371,-0.28105 -0.54048,-0.35555 -0.8108,-0.5333 -0.27031,-0.17775 -0.52409,-0.40762 -0.8108,-0.5333 -0.25646,-0.11242 -0.62017,0.25138 -0.81132,0 -0.0956,-0.12569 0.12088,-0.4539 0,-0.5333 -0.24178,-0.15899 -0.55437,0.11241 -0.81081,0 -0.36268,-0.15899 -0.44812,-0.9071 -0.8108,-1.06609 -0.25644,-0.11243 -0.56956,0.15899 -0.81132,0 -0.12091,-0.0795 0.12823,-0.4771 0,-0.5333 -0.38468,-0.16862 -0.83178,0.16864 -1.21646,0 -0.12822,-0.0562 0.12089,-0.4537 0,-0.5333 -1.1671,-0.7674 -0.93549,-0.19501 -0.71055,0.17829 -0.12804,-0.18938 -0.32894,-0.47936 -0.91106,-1.24489 -0.11246,-0.0986 -0.27453,0.0432 -0.40566,0 -0.41466,-0.13632 -0.79733,-0.42306 -1.21646,-0.5333 -0.15703,-0.0413 -1.55552,0.0438 -1.62212,0 -0.12091,-0.0795 0.0956,-0.40762 0,-0.5333 -0.0956,-0.12568 -0.28428,0.0795 -0.40515,0 -0.17098,-0.11241 -0.23469,-0.42089 -0.40566,-0.5333 -0.14663,-0.0964 -1.74521,0 -2.02726,0 -0.13517,0 -0.31006,0.12568 -0.40566,0 -0.0956,-0.1257 0.12088,-0.45329 0,-0.53279 -0.24177,-0.15898 -0.55436,0.11241 -0.81081,0 -0.18133,-0.0795 -0.23469,-0.42089 -0.40566,-0.5333 -0.12089,-0.0795 -0.28475,0.0794 -0.40566,0 -0.34194,-0.22484 -0.46887,-0.84177 -0.8108,-1.0666 -2.26651,-1.49031 -0.15782,0.21469 -2.43293,-0.5333 -0.18544,-0.061 -0.23418,-0.42088 -0.40514,-0.5333 -0.12088,-0.0794 -0.28477,0.0795 -0.40566,0 -1.68752,-1.10969 0.4333,0.0367 -0.40566,-1.0666 -0.0956,-0.12567 -0.30954,0.12569 -0.40514,0 -0.0956,-0.12567 0.0956,-0.40761 0,-0.5333 -0.0286,-0.0376 -0.31237,-0.0511 -0.59893,-0.0486 z m 73.10716,37.40599 c 0.88537,0.40404 -0.05,-0.19873 0,0 z" />
  </g>
</svg>
